<svg width="24" height="24" viewBox="0 0 24 24" fill="none" xmlns="http://www.w3.org/2000/svg">
<path d="M13.7089 1C13.3189 1 13.0039 1.31608 13.0039 1.70508V9.87891C13.0039 10.5079 13.763 10.822 14.207 10.377L19.9863 4.59766C20.2623 4.32266 20.2623 3.87461 19.9863 3.59961L19.9843 3.59766C18.3193 1.93466 16.0629 1 13.7089 1ZM11.0039 2.05078C8.76086 2.27278 6.73955 3.23931 5.18355 4.69531C2.87655 6.84831 1.58405 10.0733 2.12105 13.5723C2.79005 17.9283 6.38863 21.3968 10.7636 21.9258C15.7026 22.5218 20.0393 19.4895 21.4843 15.1465C21.5043 15.0865 21.5308 15.0317 21.5488 14.9727C21.6048 14.7927 21.6454 14.6049 21.6914 14.4199C21.7254 14.2839 21.7678 14.1517 21.7968 14.0137C21.8368 13.8197 21.8587 13.6208 21.8867 13.4238C21.9057 13.2898 21.9332 13.1575 21.9472 13.0215C21.9812 12.6855 22 12.345 22 12C22 10.114 21.4675 8.35656 20.5605 6.85156L20.5429 6.86914L19.0957 8.31836L14.291 13.1211C13.968 13.4441 13.968 13.968 14.291 14.291L16.9218 16.9219C17.3328 17.3329 17.2979 18.0191 16.8359 18.3711C15.4909 19.3921 13.815 20 12 20C7.96096 20 4.61017 16.9907 4.07417 13.0957C3.99417 12.5177 4.45307 12 5.03707 12H10.1777C10.6337 12 11.0039 11.6298 11.0039 11.1738V4.06836V2.05078Z" fill="#FF9900"/>
</svg>
