<svg width="18" height="14" viewBox="0 0 18 14" fill="none" xmlns="http://www.w3.org/2000/svg">
<path d="M7.00001 0.341797C6.74413 0.341797 6.48798 0.441219 6.29298 0.636719L0.636725 6.29297C0.245725 6.68397 0.245725 7.31703 0.636725 7.70703L6.29298 13.3633C6.68398 13.7543 7.31704 13.7543 7.70704 13.3633L7.79298 13.2773C8.18398 12.8863 8.18398 12.2533 7.79298 11.8633L3.92969 8H17C17.552 8 18 7.552 18 7C18 6.448 17.552 6 17 6H3.92969L7.79298 2.13672C8.18398 1.74572 8.18398 1.11266 7.79298 0.722656L7.70704 0.636719C7.51154 0.441219 7.25588 0.341797 7.00001 0.341797Z" fill="#FF9900"/>
</svg>
